<svg width="53" height="53" viewBox="0 0 53 53" fill="none" xmlns="http://www.w3.org/2000/svg">
<path d="M11.3973 31.6528C11.6083 31.4409 12.1008 30.9377 12.8747 30.1431C13.6486 29.3486 14.6159 28.3686 15.7767 27.2032L19.6286 23.3364L23.9025 19.0457L35.2469 7.65698L45.1139 17.6155L33.7695 29.0042L29.5483 33.2949C28.1413 34.6721 26.8749 35.9346 25.7493 37.0823C24.6236 38.23 23.6915 39.1746 22.9527 39.9162C22.214 40.6578 21.7743 41.0816 21.6336 41.1875C21.2819 41.5054 20.8773 41.8408 20.42 42.194C19.9627 42.5471 19.4879 42.8296 18.9954 43.0415C18.5029 43.2887 17.7818 43.5889 16.832 43.942C15.8823 44.2952 14.8885 44.6395 13.8508 44.975C12.8131 45.3104 11.8282 45.6018 10.896 45.849C9.96382 46.0962 9.26909 46.2551 8.81179 46.3257C7.86203 46.4317 7.22885 46.2904 6.91226 45.9019C6.59567 45.5135 6.50773 44.8602 6.64844 43.942C6.71879 43.4476 6.88588 42.7325 7.1497 41.7967C7.41353 40.8609 7.69494 39.8898 7.99394 38.8833C8.29294 37.8769 8.58315 36.9499 8.86456 36.1023C9.14597 35.2548 9.37462 34.6721 9.5505 34.3543C9.76156 33.8599 9.999 33.4096 10.2628 33.0035C10.5266 32.5974 10.9048 32.1472 11.3973 31.6528Z" fill="#EAAF45"/>
<path d="M52.844 6.91535C52.7561 6.49158 52.6418 6.12078 52.5011 5.80296C52.0086 4.74354 51.3139 3.72827 50.4169 2.75713C49.5199 1.786 48.702 1.10621 47.9633 0.717755C47.6115 0.541186 47.1982 0.382273 46.7233 0.241017C46.2484 0.0997618 45.756 0.0203055 45.2459 0.00264855C44.7359 -0.0150084 44.217 0.0556194 43.6894 0.214532C43.1617 0.373445 42.6516 0.647127 42.1592 1.03558C41.7722 1.35341 41.2886 1.786 40.7081 2.33337C40.1277 2.88073 39.6265 3.34864 39.2043 3.73709L49.0714 13.6426C49.3176 13.4308 49.5814 13.1836 49.8628 12.9011C50.1091 12.6539 50.3993 12.3713 50.7334 12.0535C51.0676 11.7357 51.4458 11.3649 51.8679 10.9411C52.2548 10.5174 52.5362 10.0759 52.7121 9.61686C52.888 9.15778 52.9759 8.6987 52.9759 8.23962C52.9759 7.78054 52.932 7.33911 52.844 6.91535Z" fill="#F4D7A2"/>
</svg>
