<svg width="60" height="60" viewBox="0 0 60 60" fill="none" xmlns="http://www.w3.org/2000/svg">
<path d="M42.4999 27.5C47.9999 27.5 52.4999 23 52.4999 17.5V16.75C52.4999 16.5 52.2499 16 52.2499 15.75L51.7499 15.25C51.2499 15 50.4999 15 49.9999 15.25L45.9999 19.25C45.4999 19.75 44.7499 19.75 44.2499 19.25L40.7499 15.75C40.2499 15.25 40.2499 14.5 40.7499 14L44.7499 10C45.2499 9.5 45.2499 8.75 44.7499 8.25L44.2499 7.75C43.9999 7.5 43.7499 7.5 43.2499 7.5H42.4999C36.9999 7.5 32.4999 12 32.4999 17.5C32.4999 18.75 32.7499 20.25 33.2499 21.5L28.9999 25.75L20.4999 17L18.2499 13C17.9999 12.25 17.4999 11.5 16.7499 11L11.4999 7.75C10.9999 7.5 10.4999 7.5 9.99991 7.75L7.99991 10C7.49991 10.5 7.49991 11 7.74991 11.5L11.2499 16.5C11.4999 17.5 12.2499 18 12.9999 18.25L16.9999 20.5L33.9999 37.5L32.7499 38.75C32.2499 39.25 32.2499 40 32.7499 40.5L43.9999 51.75C44.4999 52.25 44.9999 52.5 45.7499 52.5H48.7499C49.4999 52.5 49.9999 52.25 50.4999 51.75L51.7499 50.5C52.2499 50 52.4999 49.5 52.4999 48.75V45.75C52.4999 45 52.2499 44.5 51.7499 44L40.4999 32.75C39.9999 32.25 39.2499 32.25 38.7499 32.75L37.4999 34L34.4999 31L38.7499 26.75C39.7499 27.25 41.2499 27.5 42.4999 27.5Z" fill="#EAAF45"/>
<path d="M7.5 48.25C7.5 47.5 7.75 47 8.25 46.5L22.5 32.25L27.75 37.5L13.5 51.75C13 52.25 12.5 52.5 11.75 52.5H11.25C10.75 52.5 10 52.25 9.5 51.75L8.25 50.5C7.75 50 7.5 49.5 7.5 48.75V48.25Z" fill="#EAAF45" fill-opacity="0.5"/>
</svg>
