<svg width="56" height="56" viewBox="0 0 56 56" fill="none" xmlns="http://www.w3.org/2000/svg">
<g clip-path="url(#clip0_1174_427)">
<path d="M53.2429 22.7226L47.9658 27.9997C44.8803 31.0852 40.2571 31.4223 36.6548 29.3277L40.1568 25.8257C41.7134 26.2224 43.4201 25.8902 44.6382 24.6719L49.9152 19.3949C50.3522 18.9579 50.6989 18.4391 50.9354 17.8682C51.1719 17.2972 51.2937 16.6852 51.2937 16.0672C51.2937 15.4492 51.1719 14.8373 50.9354 14.2663C50.6989 13.6953 50.3522 13.1766 49.9152 12.7396L43.2596 6.08428C42.377 5.20173 41.18 4.70592 39.9319 4.70592C38.6838 4.70592 37.4868 5.20173 36.6042 6.08428L31.3273 11.3612C30.109 12.5795 29.7765 14.2862 30.1734 15.8426L26.6714 19.3446C24.5768 15.7424 24.9139 11.1192 27.9994 8.03367L33.2763 2.75671C35.0414 0.991617 37.4354 0 39.9317 0C42.4279 0 44.8219 0.991617 46.587 2.75671L53.2429 9.41196C55.0079 11.1771 55.9994 13.5711 55.9994 16.0673C55.9994 18.5635 55.0079 20.9575 53.2429 22.7226ZM11.3614 31.3271L6.08441 36.6041C5.20187 37.4867 4.70606 38.6837 4.70606 39.9318C4.70606 41.1799 5.20187 42.3769 6.08441 43.2594L12.7398 49.9148C13.1767 50.3518 13.6955 50.6985 14.2665 50.935C14.8375 51.1715 15.4494 51.2933 16.0674 51.2933C16.6854 51.2933 17.2974 51.1715 17.8684 50.935C18.4393 50.6985 18.9581 50.3518 19.3951 49.9148L24.6721 44.6378C25.8903 43.4198 26.2228 41.7131 25.8259 40.1564L29.3279 36.6544C31.4225 40.2571 31.0854 44.8802 28 47.9657L22.723 53.2428C20.9578 55.0078 18.5638 55.9993 16.0676 55.9993C13.5714 55.9993 11.1775 55.0078 9.41231 53.2428L2.75673 46.5874C0.991627 44.8223 0 42.4283 0 39.932C0 37.4358 0.991627 35.0418 2.75673 33.2767L8.03369 27.9997C11.1192 24.9141 15.7424 24.5771 19.3446 26.6717L15.8427 30.1736C14.2864 29.7764 12.5797 30.1091 11.3614 31.3271Z" fill="#EAAF45"/>
<path d="M14 39.8451C14 40.4692 14.2479 41.0678 14.6892 41.5091C15.1305 41.9503 15.729 42.1981 16.353 42.1981C16.977 42.1981 17.5755 41.9503 18.0168 41.5091L39.3613 20.1645C39.7998 19.7226 40.0454 19.125 40.0442 18.5024C40.0431 17.8799 39.7952 17.2832 39.355 16.843C38.9148 16.4028 38.3181 16.155 37.6956 16.1538C37.0731 16.1526 36.4754 16.3982 36.0336 16.8368L14.6892 38.1811C14.2479 38.6225 14 39.221 14 39.8451Z" fill="#F4D7A2"/>
</g>
<defs>
<clipPath id="clip0_1174_427">
<rect width="56" height="56" fill="white"/>
</clipPath>
</defs>
</svg>
