<svg width="60" height="60" viewBox="0 0 60 60" fill="none" xmlns="http://www.w3.org/2000/svg">
<path d="M36.1797 9.81262C36.1797 6.40446 33.4081 3.63281 29.9999 3.63281C26.5918 3.63281 23.8201 6.40446 23.8201 9.81262C23.8201 13.2208 26.5918 15.9924 29.9999 15.9924C33.4081 15.9924 36.1797 13.2208 36.1797 9.81262ZM39.2697 26.8071V25.2621C39.2697 20.1505 35.1116 15.9924 29.9999 15.9924C24.8883 15.9924 20.7302 20.1505 20.7302 25.2621V26.8071C20.7302 27.6609 21.4213 28.3521 22.2752 28.3521H37.7247C38.5785 28.3521 39.2697 27.6609 39.2697 26.8071ZM53.2772 37.8278C53.2772 34.4196 50.5056 31.6479 47.0974 31.6479C43.6892 31.6479 40.9176 34.4196 40.9176 37.8278C40.9176 41.2359 43.6892 44.0076 47.0974 44.0076C50.5056 44.0076 53.2772 41.2359 53.2772 37.8278Z" fill="#EAAF45"/>
<path d="M31.5449 33.0899V38.498L37.1059 42.669C37.7895 43.1804 37.9282 44.1488 37.4153 44.8307C37.112 45.2367 36.6488 45.4495 36.1781 45.4495C35.8445 45.4497 35.5199 45.341 35.2536 45.1401L29.9999 41.2001L24.7463 45.1401C24.4691 45.3486 24.1444 45.4495 23.8218 45.4495C23.351 45.4495 22.8875 45.2367 22.5846 44.8307C22.0716 44.1487 22.2104 43.1804 22.894 42.669L28.455 38.4972V33.0899C28.455 32.236 29.1461 31.5449 29.9999 31.5449C30.8538 31.5449 31.5449 32.236 31.5449 33.0899Z" fill="#F4D7A2"/>
<path d="M47.0975 44.0076C41.9858 44.0076 37.8278 48.1657 37.8278 53.2773V54.8222C37.8278 55.6761 38.5189 56.3672 39.3727 56.3672H54.8222C55.6761 56.3672 56.3672 55.6761 56.3672 54.8222V53.2773C56.3672 48.1657 52.2091 44.0076 47.0975 44.0076ZM19.0823 37.8278C19.0823 34.4196 16.3107 31.6479 12.9025 31.6479C9.49436 31.6479 6.72272 34.4196 6.72272 37.8278C6.72272 41.2359 9.49436 44.0076 12.9025 44.0076C16.3107 44.0076 19.0823 41.2359 19.0823 37.8278ZM12.9025 44.0076C7.7909 44.0076 3.63281 48.1657 3.63281 53.2773V54.8222C3.63281 55.6761 4.32392 56.3672 5.17776 56.3672H20.6273C21.4811 56.3672 22.1722 55.6761 22.1722 54.8222V53.2773C22.1722 48.1657 18.0142 44.0076 12.9025 44.0076Z" fill="#EAAF45"/>
</svg>
